<svg xmlns="http://www.w3.org/2000/svg" viewBox="0 0 100 100">
  <defs>
    <linearGradient id="bookGradient" x1="0%" y1="0%" x2="100%" y2="100%">
      <stop offset="0%" style="stop-color:#7c3aed;stop-opacity:1" />
      <stop offset="100%" style="stop-color:#a855f7;stop-opacity:1" />
    </linearGradient>
  </defs>
  
  <!-- Livro aberto -->
  <path d="M 15 25 L 15 75 Q 15 80 20 80 L 45 80 Q 50 80 50 75 L 50 25 Q 50 20 45 20 L 20 20 Q 15 20 15 25 Z" 
        fill="url(#bookGradient)" stroke="#5b21b6" stroke-width="2"/>
  
  <path d="M 85 25 L 85 75 Q 85 80 80 80 L 55 80 Q 50 80 50 75 L 50 25 Q 50 20 55 20 L 80 20 Q 85 20 85 25 Z" 
        fill="url(#bookGradient)" stroke="#5b21b6" stroke-width="2"/>
  
  <!-- Linha do meio (lombada) -->
  <line x1="50" y1="20" x2="50" y2="80" stroke="#5b21b6" stroke-width="3"/>
  
  <!-- Linhas de texto (página esquerda) -->
  <line x1="22" y1="35" x2="43" y2="35" stroke="#f5f3ff" stroke-width="2" stroke-linecap="round"/>
  <line x1="22" y1="45" x2="43" y2="45" stroke="#f5f3ff" stroke-width="2" stroke-linecap="round"/>
  <line x1="22" y1="55" x2="38" y2="55" stroke="#f5f3ff" stroke-width="2" stroke-linecap="round"/>
  
  <!-- Linhas de texto (página direita) -->
  <line x1="57" y1="35" x2="78" y2="35" stroke="#f5f3ff" stroke-width="2" stroke-linecap="round"/>
  <line x1="57" y1="45" x2="78" y2="45" stroke="#f5f3ff" stroke-width="2" stroke-linecap="round"/>
  <line x1="62" y1="55" x2="78" y2="55" stroke="#f5f3ff" stroke-width="2" stroke-linecap="round"/>
  
  <!-- Brilho/destaque -->
  <ellipse cx="30" cy="35" rx="8" ry="3" fill="rgba(255,255,255,0.2)"/>
  <ellipse cx="70" cy="35" rx="8" ry="3" fill="rgba(255,255,255,0.2)"/>
</svg>
