<svg xmlns="http://www.w3.org/2000/svg" width="32" height="32" viewBox="0 0 32 32">
  <defs>
    <linearGradient id="ico-grad" x1="0%" y1="0%" x2="100%" y2="100%">
      <stop offset="0%" style="stop-color:#7c3aed"/>
      <stop offset="100%" style="stop-color:#a855f7"/>
    </linearGradient>
  </defs>
  <!-- Background -->
  <rect width="32" height="32" fill="url(#ico-grad)" rx="6"/>
  
  <!-- Book icon -->
  <path d="M 8 10 L 8 24 Q 8 25 9 25 L 15 25 Q 16 25 16 24 L 16 10 Q 16 9 15 9 L 9 9 Q 8 9 8 10 Z" 
        fill="white" opacity="0.9"/>
  
  <path d="M 24 10 L 24 24 Q 24 25 23 25 L 17 25 Q 16 25 16 24 L 16 10 Q 16 9 17 9 L 23 9 Q 24 9 24 10 Z" 
        fill="white" opacity="0.9"/>
  
  <line x1="16" y1="9" x2="16" y2="25" stroke="white" stroke-width="1.5"/>
  
  <!-- Text lines -->
  <line x1="10" y1="13" x2="14" y2="13" stroke="#7c3aed" stroke-width="1"/>
  <line x1="10" y1="16" x2="14" y2="16" stroke="#7c3aed" stroke-width="1"/>
  <line x1="18" y1="13" x2="22" y2="13" stroke="#7c3aed" stroke-width="1"/>
  <line x1="18" y1="16" x2="22" y2="16" stroke="#7c3aed" stroke-width="1"/>
</svg>
